<mxfile host="app.diagrams.net" modified="2023-01-17T17:49:33.252Z" agent="5.0 (Windows NT 10.0; Win64; x64) AppleWebKit/537.36 (KHTML, like Gecko) Chrome/109.0.0.0 Safari/537.36" version="20.8.5" etag="tMPW75mdCXdm4VPbuKsD" type="github">
  <diagram id="A7ms7kUpwD3qeQYLVmXG" name="Page-1">
    <mxGraphModel dx="880" dy="465" grid="1" gridSize="10" guides="1" tooltips="1" connect="1" arrows="1" fold="1" page="1" pageScale="1" pageWidth="850" pageHeight="1100" math="0" shadow="0">
      <root>
        <mxCell id="0" />
        <mxCell id="1" parent="0" />
        <mxCell id="K0uaTNfaGxvIkHt9UpJX-1" value="&lt;font style=&quot;font-size: 12px;&quot;&gt;&lt;b style=&quot;&quot;&gt;MySQL RDS Database&lt;/b&gt;&lt;/font&gt;" style="outlineConnect=0;dashed=0;verticalLabelPosition=bottom;verticalAlign=top;align=center;html=1;shape=mxgraph.aws3.mysql_db_instance_2;fillColor=#2E73B8;gradientColor=none;" vertex="1" parent="1">
          <mxGeometry x="60" y="200" width="140" height="113" as="geometry" />
        </mxCell>
        <mxCell id="K0uaTNfaGxvIkHt9UpJX-16" style="edgeStyle=orthogonalEdgeStyle;rounded=0;orthogonalLoop=1;jettySize=auto;html=1;exitX=0.77;exitY=0.5;exitDx=0;exitDy=0;exitPerimeter=0;fontSize=14;" edge="1" parent="1" source="K0uaTNfaGxvIkHt9UpJX-2" target="K0uaTNfaGxvIkHt9UpJX-4">
          <mxGeometry relative="1" as="geometry" />
        </mxCell>
        <mxCell id="K0uaTNfaGxvIkHt9UpJX-2" value="" style="outlineConnect=0;dashed=0;verticalLabelPosition=bottom;verticalAlign=top;align=center;html=1;shape=mxgraph.aws3.database_migration_service;fillColor=#2E73B8;gradientColor=none;" vertex="1" parent="1">
          <mxGeometry x="348" y="150" width="132" height="131" as="geometry" />
        </mxCell>
        <mxCell id="K0uaTNfaGxvIkHt9UpJX-4" value="" style="outlineConnect=0;dashed=0;verticalLabelPosition=bottom;verticalAlign=top;align=center;html=1;shape=mxgraph.aws3.bucket_with_objects;fillColor=#E05243;gradientColor=none;" vertex="1" parent="1">
          <mxGeometry x="650" y="225.75" width="60" height="61.5" as="geometry" />
        </mxCell>
        <mxCell id="K0uaTNfaGxvIkHt9UpJX-5" value="" style="edgeStyle=none;orthogonalLoop=1;jettySize=auto;html=1;rounded=0;entryX=0.23;entryY=0.5;entryDx=0;entryDy=0;entryPerimeter=0;" edge="1" parent="1" target="K0uaTNfaGxvIkHt9UpJX-2">
          <mxGeometry width="100" relative="1" as="geometry">
            <mxPoint x="200" y="256" as="sourcePoint" />
            <mxPoint x="300" y="256" as="targetPoint" />
            <Array as="points" />
          </mxGeometry>
        </mxCell>
        <mxCell id="K0uaTNfaGxvIkHt9UpJX-6" value="" style="outlineConnect=0;dashed=0;verticalLabelPosition=bottom;verticalAlign=top;align=center;html=1;shape=mxgraph.aws3.ec2;fillColor=#F58534;gradientColor=none;fontSize=14;" vertex="1" parent="1">
          <mxGeometry x="420" y="311" width="40" height="50" as="geometry" />
        </mxCell>
        <mxCell id="K0uaTNfaGxvIkHt9UpJX-7" value="" style="outlineConnect=0;dashed=0;verticalLabelPosition=bottom;verticalAlign=top;align=center;html=1;shape=mxgraph.aws3.ec2;fillColor=#F58534;gradientColor=none;fontSize=14;" vertex="1" parent="1">
          <mxGeometry x="360" y="311" width="46.5" height="53" as="geometry" />
        </mxCell>
        <mxCell id="K0uaTNfaGxvIkHt9UpJX-9" value="" style="rounded=1;arcSize=10;dashed=0;fillColor=none;gradientColor=none;strokeWidth=2;fontSize=14;" vertex="1" parent="1">
          <mxGeometry x="350" y="300" width="130" height="80" as="geometry" />
        </mxCell>
        <mxCell id="K0uaTNfaGxvIkHt9UpJX-11" value="&lt;font style=&quot;font-size: 12px;&quot;&gt;&lt;b&gt;DMS Replication Instances&lt;/b&gt;&lt;/font&gt;" style="text;strokeColor=none;align=center;fillColor=none;html=1;verticalAlign=middle;whiteSpace=wrap;rounded=0;fontSize=14;" vertex="1" parent="1">
          <mxGeometry x="340" y="380" width="180" height="30" as="geometry" />
        </mxCell>
        <mxCell id="K0uaTNfaGxvIkHt9UpJX-19" value="DATE REPLICATION FROM MYSQL DATABASE TO S3 DATA LAKE USING AWS DMS" style="swimlane;whiteSpace=wrap;html=1;fontSize=14;" vertex="1" parent="1">
          <mxGeometry x="40" y="30" width="710" height="430" as="geometry" />
        </mxCell>
        <mxCell id="K0uaTNfaGxvIkHt9UpJX-20" value="&lt;b&gt;&lt;font style=&quot;font-size: 12px;&quot;&gt;S3 Lake Bucket&lt;/font&gt;&lt;/b&gt;" style="text;strokeColor=none;align=center;fillColor=none;html=1;verticalAlign=middle;whiteSpace=wrap;rounded=0;fontSize=14;" vertex="1" parent="K0uaTNfaGxvIkHt9UpJX-19">
          <mxGeometry x="540" y="257.25" width="190" height="30" as="geometry" />
        </mxCell>
        <mxCell id="K0uaTNfaGxvIkHt9UpJX-21" value="" style="outlineConnect=0;dashed=0;verticalLabelPosition=bottom;verticalAlign=top;align=center;html=1;shape=mxgraph.aws3.cloud_2;fillColor=#F58534;gradientColor=none;fontSize=14;" vertex="1" parent="K0uaTNfaGxvIkHt9UpJX-19">
          <mxGeometry width="50" height="40" as="geometry" />
        </mxCell>
        <mxCell id="K0uaTNfaGxvIkHt9UpJX-22" value="&lt;font style=&quot;font-size: 12px;&quot;&gt;&lt;b&gt;AWS DMS (Database Migration Service)&lt;/b&gt;&lt;/font&gt;" style="text;strokeColor=none;align=center;fillColor=none;html=1;verticalAlign=middle;whiteSpace=wrap;rounded=0;fontSize=14;" vertex="1" parent="K0uaTNfaGxvIkHt9UpJX-19">
          <mxGeometry x="250" y="90" width="260" height="30" as="geometry" />
        </mxCell>
      </root>
    </mxGraphModel>
  </diagram>
</mxfile>
